# xmcd CD database file
#
# Track frame offsets:
#	150
#	10647
#	20705
#	30885
#	41887
#	54862
#	66740
#	79375
#	93032
#	105827
#	117297
#	127795
#	140400
#	151927
#	162590
#	172655
#	182192
#	192527
#	203182
#	214530
#	227822
#
# Disc length: 3209 seconds
#
# Revision: 1
# Processed by: cddbd v1.5.2PL0 Copyright (c) Steve Scherf et al.
# Submitted via: jetAudio 7
#
DISCID=100c8715
DTITLE=The Statler Brothers - Gold [CD1]
DYEAR=2006
DGENRE=Country
TTITLE0=Flowers On The Wall
TTITLE1=Ruthless
TTITLE2=You Can't Have Your Kate And Edith Too
TTITLE3=Bed Of Rose's
TTITLE4=Do You Remember These
TTITLE5=The Class Of '57
TTITLE6=Woman Without A Home
TTITLE7=Susan When She Tried
TTITLE8=I'll Go To My Grave Loving You
TTITLE9=Your Picture In The Paper
TTITLE10=Thank God I've Got You
TTITLE11=I Was There
TTITLE12=Silver Medals And Sweet Memories
TTITLE13=Some I Wrote
TTITLE14=Do You Know You Are My Sunshine
TTITLE15=Who Am I To Say
TTITLE16=The Official Historian On Shirley Jean Berrell
TTITLE17=Nothing As Original As You
TTITLE18=(I'll Even Love You) Better Than I Did Then
TTITLE19=Charlotte's Web
TTITLE20=Don't Forget Yourself
EXTD=
EXTT0=
EXTT1=
EXTT2=
EXTT3=
EXTT4=
EXTT5=
EXTT6=
EXTT7=
EXTT8=
EXTT9=
EXTT10=
EXTT11=
EXTT12=
EXTT13=
EXTT14=
EXTT15=
EXTT16=
EXTT17=
EXTT18=
EXTT19=
EXTT20=
PLAYORDER=
